<?xml version="1.0" encoding="iso-8859-1"?>
<!-- Generator: Adobe Illustrator 19.0.0, SVG Export Plug-In . SVG Version: 6.00 Build 0)  -->
<svg xmlns="http://www.w3.org/2000/svg" xmlns:xlink="http://www.w3.org/1999/xlink" version="1.1" id="Layer_1" x="0px" y="0px" viewBox="0 0 304.716 304.716" style="enable-background:new 0 0 304.716 304.716;" xml:space="preserve" width="512" height="512">
<g>
	<g>
		<path style="fill:#E45527;" d="M0,235.372v-26.775c0-11.604,9.407-21.011,21.011-21.011h262.693    c11.604,0,21.011,9.407,21.011,21.011v26.775c0,11.604-9.407,21.011-21.011,21.011H21.011C9.407,256.384,0,246.977,0,235.372z"/>
		<path style="fill:#E45527;" d="M0,235.372v-26.775c0-11.604,9.407-21.011,21.011-21.011h262.693    c11.604,0,21.011,9.407,21.011,21.011v26.775c0,11.604-9.407,21.011-21.011,21.011H21.011C9.407,256.384,0,246.977,0,235.372z"/>
		<path style="fill:#A5A9A6;" d="M60.993,187.586H21.011C9.407,187.586,0,196.993,0,208.597v26.775    c0,11.604,9.407,21.011,21.011,21.011h39.981V187.586z"/>
		<path style="fill:#A5A9A6;" d="M283.704,187.586H152.358v68.798h131.346c11.604,0,21.011-9.407,21.011-21.011v-26.775    C304.716,196.993,295.308,187.586,283.704,187.586z"/>
	</g>
	<g>
		<path style="fill:#32A5B9;" d="M205.858,48.332h-107c-13.807,0-25,11.193-25,25v64c0,13.807,11.193,25,25,25h37.02    c2.301,0,4.508,0.914,6.135,2.541l5.094,5.094c3.388,3.388,8.882,3.388,12.27,0l7.635-7.635h38.846c13.807,0,25-11.193,25-25v-64    C230.858,59.525,219.665,48.332,205.858,48.332z"/>
		<path style="fill:#2B8A9A;" d="M152.358,48.332h-53.5c-13.807,0-25,11.193-25,25v64c0,13.807,11.193,25,25,25h37.02    c2.301,0,4.508,0.914,6.135,2.541l5.094,5.094c1.469,1.469,3.334,2.299,5.251,2.494V48.332z"/>
		<path style="fill:#F8B242;" d="M132.924,83.071l46.605,18.194c2.469,0.964,2.469,4.458,0,5.421l-46.605,18.194    c-1.908,0.745-3.968-0.662-3.968-2.711V85.782C128.955,83.733,131.015,82.326,132.924,83.071z"/>
		<path style="fill:#D09838;" d="M132.924,83.071l19.427,7.584l0.006,26.639l-19.434,7.587c-1.908,0.745-3.968-0.662-3.968-2.711    V85.782C128.955,83.733,131.015,82.326,132.924,83.071z"/>
	</g>
</g>















</svg>
